<mxfile host="app.diagrams.net" agent="Mozilla/5.0 (Windows NT 10.0; Win64; x64) AppleWebKit/537.36 (KHTML, like Gecko) Chrome/134.0.0.0 Safari/537.36" version="26.1.3">
  <diagram name="Cadastro de Aluno" id="Kxj-sncLvuSgpgrLd5fi">
    <mxGraphModel dx="1050" dy="522" grid="1" gridSize="10" guides="1" tooltips="1" connect="1" arrows="1" fold="1" page="1" pageScale="1" pageWidth="827" pageHeight="1169" math="0" shadow="0">
      <root>
        <mxCell id="0" />
        <mxCell id="1" parent="0" />
        <mxCell id="2" value="Início" style="ellipse;aspect=fixed;strokeWidth=2;whiteSpace=wrap;" parent="1" vertex="1">
          <mxGeometry x="81" y="110" width="50" height="50" as="geometry" />
        </mxCell>
        <mxCell id="3" value="Homepage" style="rhombus;strokeWidth=2;whiteSpace=wrap;" parent="1" vertex="1">
          <mxGeometry x="42" y="202" width="129" height="129" as="geometry" />
        </mxCell>
        <mxCell id="4" value="Página de Formulário de Cadastro" style="whiteSpace=wrap;strokeWidth=2;" parent="1" vertex="1">
          <mxGeometry x="38" y="392" width="136" height="54" as="geometry" />
        </mxCell>
        <mxCell id="1JzqEaPt0f89XTtrBWNc-22" value="" style="edgeStyle=orthogonalEdgeStyle;rounded=0;orthogonalLoop=1;jettySize=auto;html=1;exitX=1;exitY=0.5;exitDx=0;exitDy=0;" edge="1" parent="1" source="5" target="9">
          <mxGeometry relative="1" as="geometry" />
        </mxCell>
        <mxCell id="1JzqEaPt0f89XTtrBWNc-25" style="edgeStyle=orthogonalEdgeStyle;rounded=0;orthogonalLoop=1;jettySize=auto;html=1;entryX=0.5;entryY=0;entryDx=0;entryDy=0;" edge="1" parent="1" source="5" target="1JzqEaPt0f89XTtrBWNc-16">
          <mxGeometry relative="1" as="geometry">
            <Array as="points">
              <mxPoint x="574" y="172" />
              <mxPoint x="378" y="172" />
            </Array>
          </mxGeometry>
        </mxCell>
        <mxCell id="5" value="Página Inicial do Usuário Aluno" style="rhombus;strokeWidth=2;whiteSpace=wrap;" parent="1" vertex="1">
          <mxGeometry x="510" y="213" width="128" height="128" as="geometry" />
        </mxCell>
        <mxCell id="9" value="End" style="ellipse;aspect=fixed;strokeWidth=2;whiteSpace=wrap;" parent="1" vertex="1">
          <mxGeometry x="740" y="256.5" width="41" height="41" as="geometry" />
        </mxCell>
        <mxCell id="10" value="Usuário acessa a página" style="curved=1;startArrow=none;endArrow=block;exitX=0.5;exitY=1;entryX=0.5;entryY=0;" parent="1" source="2" target="3" edge="1">
          <mxGeometry relative="1" as="geometry">
            <Array as="points" />
          </mxGeometry>
        </mxCell>
        <mxCell id="11" value="  Usuário seleciona &#39;&#39;Cadastrar como Aluno&quot;" style="curved=1;startArrow=none;endArrow=block;exitX=0.5;exitY=1;entryX=0.5;entryY=0;exitDx=0;exitDy=0;entryDx=0;entryDy=0;" parent="1" source="3" target="4" edge="1">
          <mxGeometry x="-0.3232" y="14" relative="1" as="geometry">
            <Array as="points" />
            <mxPoint as="offset" />
          </mxGeometry>
        </mxCell>
        <mxCell id="1JzqEaPt0f89XTtrBWNc-18" value="" style="curved=1;startArrow=none;endArrow=block;entryX=0.5;entryY=1;entryDx=0;entryDy=0;" edge="1" parent="1" target="1JzqEaPt0f89XTtrBWNc-16">
          <mxGeometry x="-0.7294" y="1" relative="1" as="geometry">
            <Array as="points">
              <mxPoint x="340" y="422" />
            </Array>
            <mxPoint x="174" y="422" as="sourcePoint" />
            <mxPoint x="340" y="342" as="targetPoint" />
            <mxPoint as="offset" />
          </mxGeometry>
        </mxCell>
        <mxCell id="1JzqEaPt0f89XTtrBWNc-16" value="Validação" style="rounded=1;whiteSpace=wrap;html=1;arcSize=34;" vertex="1" parent="1">
          <mxGeometry x="340" y="262" width="75.5" height="30" as="geometry" />
        </mxCell>
        <mxCell id="12" value="Usuário preenche informações" style="curved=1;startArrow=none;endArrow=block;entryX=0;entryY=0.5;entryDx=0;entryDy=0;exitX=1;exitY=0.5;exitDx=0;exitDy=0;" parent="1" source="1JzqEaPt0f89XTtrBWNc-16" target="5" edge="1">
          <mxGeometry x="-1" y="-142" relative="1" as="geometry">
            <Array as="points" />
            <mxPoint x="157" y="682" as="sourcePoint" />
            <mxPoint x="89" y="752" as="targetPoint" />
            <mxPoint x="-95" y="-37" as="offset" />
          </mxGeometry>
        </mxCell>
        <mxCell id="1JzqEaPt0f89XTtrBWNc-26" value="CADASTRO DE USUÁRIO ALUNO" style="rounded=0;whiteSpace=wrap;html=1;" vertex="1" parent="1">
          <mxGeometry x="240" y="20" width="300" height="40" as="geometry" />
        </mxCell>
      </root>
    </mxGraphModel>
  </diagram>
</mxfile>
